<svg xmlns="http://www.w3.org/2000/svg" version="1.1" xmlns:xlink="http://www.w3.org/1999/xlink" xmlns:svgjs="http://svgjs.com/svgjs" width="1080" height="1080" preserveAspectRatio="none" viewBox="0 0 1080 1080"><g mask="url(&quot;#SvgjsMask1301&quot;)" fill="none"><rect width="1080" height="1080" x="0" y="0" fill="url(#SvgjsLinearGradient1302)"></rect><path d="M1080 0L565.1 0L1080 169.29z" fill="rgba(255, 255, 255, .1)"></path><path d="M565.1 0L1080 169.29L1080 243.33999999999997L268.44 0z" fill="rgba(255, 255, 255, .075)"></path><path d="M268.44000000000005 0L1080 243.33999999999997L1080 397.87L109.41000000000005 0z" fill="rgba(255, 255, 255, .05)"></path><path d="M109.41000000000008 0L1080 397.87L1080 443.23L52.26000000000008 0z" fill="rgba(255, 255, 255, .025)"></path><path d="M0 1080L406.59 1080L0 547.4z" fill="rgba(0, 0, 0, .1)"></path><path d="M0 547.4L406.59 1080L732.8399999999999 1080L0 475.83z" fill="rgba(0, 0, 0, .075)"></path><path d="M0 475.8299999999999L732.8399999999999 1080L828.1899999999999 1080L0 291.42999999999995z" fill="rgba(0, 0, 0, .05)"></path><path d="M0 291.42999999999995L828.1899999999999 1080L886.41 1080L0 141.42999999999995z" fill="rgba(0, 0, 0, .025)"></path></g><defs><mask id="SvgjsMask1301"><rect width="1080" height="1080" fill="#ffffff"></rect></mask><linearGradient x1="50%" y1="0%" x2="50%" y2="100%" gradientUnits="userSpaceOnUse" id="SvgjsLinearGradient1302"><stop stop-color="#0e2a47" offset="0"></stop><stop stop-color="rgba(158, 0, 4, 1)" offset="1"></stop></linearGradient></defs></svg>